<svg width="300" height="200" viewBox="0 0 300 200" fill="none" xmlns="http://www.w3.org/2000/svg">
  <!-- Background -->
  <ellipse cx="150" cy="100" rx="140" ry="90" fill="currentColor" opacity="0.08"/>
  
  <!-- Tree Branch -->
  <path d="M20 120C50 115 100 110 150 115C200 120 250 125 280 130" stroke="currentColor" stroke-width="4" stroke-linecap="round" opacity="0.3"/>
  
  <!-- Leaves on Branch -->
  <ellipse cx="80" cy="110" rx="8" ry="4" fill="currentColor" opacity="0.25"/>
  <ellipse cx="180" cy="118" rx="6" ry="3" fill="currentColor" opacity="0.25"/>
  <ellipse cx="220" cy="122" rx="7" ry="4" fill="currentColor" opacity="0.25"/>
  
  <!-- Main Bird (Larger) -->
  <ellipse cx="120" cy="95" rx="20" ry="12" fill="currentColor" opacity="0.4"/>
  <ellipse cx="110" cy="90" rx="12" ry="8" fill="currentColor" opacity="0.5"/>
  <path d="M95 88C90 86 85 88 85 92" stroke="currentColor" stroke-width="2" stroke-linecap="round" opacity="0.6"/>
  <circle cx="105" cy="88" r="2" fill="currentColor" opacity="0.8"/>
  <path d="M105 95L108 98L105 101" stroke="currentColor" stroke-width="1.5" stroke-linecap="round" opacity="0.6"/>
  
  <!-- Bird Tail -->
  <path d="M140 100L155 105L150 95" fill="currentColor" opacity="0.35"/>
  
  <!-- Small Birds Flying -->
  <path d="M200 60C198 58 196 58 194 60M206 60C208 58 210 58 212 60" stroke="currentColor" stroke-width="1.5" stroke-linecap="round" opacity="0.5"/>
  <path d="M180 70C178 68 176 68 174 70M186 70C188 68 190 68 192 70" stroke="currentColor" stroke-width="1.5" stroke-linecap="round" opacity="0.5"/>
  <path d="M220 75C218 73 216 73 214 75M226 75C228 73 230 73 232 75" stroke="currentColor" stroke-width="1.5" stroke-linecap="round" opacity="0.5"/>
  
  <!-- Binoculars (Person Watching) -->
  <circle cx="50" cy="160" r="8" stroke="currentColor" stroke-width="2" fill="none" opacity="0.4"/>
  <circle cx="70" cy="160" r="8" stroke="currentColor" stroke-width="2" fill="none" opacity="0.4"/>
  <line x1="58" y1="160" x2="62" y2="160" stroke="currentColor" stroke-width="2" opacity="0.4"/>
  <line x1="45" y1="155" x2="40" y2="150" stroke="currentColor" stroke-width="2" stroke-linecap="round" opacity="0.4"/>
  <line x1="75" y1="155" x2="80" y2="150" stroke="currentColor" stroke-width="2" stroke-linecap="round" opacity="0.4"/>
  
  <!-- Viewing Lines -->
  <path d="M60 150L115 95" stroke="currentColor" stroke-width="1" stroke-dasharray="2,2" opacity="0.3"/>
  
  <!-- Nature Elements -->
  <path d="M240 140C245 135 250 140 255 135C260 140 265 135 270 140" stroke="currentColor" stroke-width="1.5" stroke-linecap="round" opacity="0.3"/>
  
  <!-- Small Flowers -->
  <circle cx="30" cy="180" r="3" fill="currentColor" opacity="0.3"/>
  <circle cx="27" cy="177" r="1" fill="currentColor" opacity="0.4"/>
  <circle cx="33" cy="177" r="1" fill="currentColor" opacity="0.4"/>
  <circle cx="27" cy="183" r="1" fill="currentColor" opacity="0.4"/>
  <circle cx="33" cy="183" r="1" fill="currentColor" opacity="0.4"/>
  
  <circle cx="260" cy="170" r="2" fill="currentColor" opacity="0.3"/>
  <circle cx="258" cy="168" r="0.8" fill="currentColor" opacity="0.4"/>
  <circle cx="262" cy="168" r="0.8" fill="currentColor" opacity="0.4"/>
  <circle cx="258" cy="172" r="0.8" fill="currentColor" opacity="0.4"/>
  <circle cx="262" cy="172" r="0.8" fill="currentColor" opacity="0.4"/>
</svg>

