<svg width="24" height="24" viewBox="0 0 24 24" fill="none" xmlns="http://www.w3.org/2000/svg">
<path d="M21 11.5C21.0034 13.1819 20.6375 14.8378 19.9343 16.3445C19.2312 17.8512 18.2098 19.1677 16.9447 20.1893C15.6797 21.2108 14.2062 21.9058 12.6395 22.2234C11.0728 22.5409 9.45726 22.4708 7.9188 22.0183C6.38035 21.5659 4.97473 20.7421 3.80711 19.6123C2.63948 18.4825 1.74338 17.0803 1.18508 15.5321C0.626781 13.984 0.420262 12.3301 0.583123 10.6914C0.745984 9.05273 1.27474 7.47794 2.1188 6.08887L1 1L6.91113 2.1188C8.30021 1.27474 9.875 0.745984 11.5137 0.583123C13.1523 0.420262 14.8062 0.626781 16.3544 1.18508C17.9026 1.74338 19.3048 2.63948 20.4346 3.80711C21.5644 4.97473 22.3882 6.38035 22.8406 7.9188C23.2931 9.45726 23.3632 11.0728 23.0456 12.6395C22.7281 14.2062 22.0331 15.6797 21.0115 16.9447C19.9899 18.2098 18.6734 19.2312 17.1667 19.9343C15.66 20.6375 14.0041 21.0034 12.3223 21H12.3C10.8703 20.9975 9.4583 20.6664 8.17676 20.0352L3 21L4.96484 15.8232C4.33361 14.5417 4.00244 13.1297 4 11.7V11.5C4 5.97715 8.47715 1.5 14 1.5C19.5228 1.5 24 5.97715 24 11.5Z" stroke="currentColor" stroke-width="2" stroke-linecap="round" stroke-linejoin="round"/>
</svg>

